<svg xmlns="http://www.w3.org/2000/svg" id="department_24_icon" width="24" height="24" viewBox="0 0 24 24">
    <defs>
        <style>
            .cls-2{fill:#8d8d8d}
        </style>
    </defs>
    <g id="_1738700" transform="translate(3 3)">
        <path id="Path_5614" d="M49.174 273.573a1.573 1.573 0 1 0-1.573 1.573 1.575 1.575 0 0 0 1.573-1.573zm-1.574.527a.524.524 0 1 1 .524-.524.525.525 0 0 1-.524.524zm0 0" class="cls-2" transform="translate(-44.419 -262.426)"/>
        <path id="Path_5615" d="M207.678 212.836a1.835 1.835 0 1 0-1.835 1.836 1.838 1.838 0 0 0 1.835-1.836zm-1.835.787a.787.787 0 1 1 .787-.787.787.787 0 0 1-.787.786zm0 0" class="cls-2" transform="translate(-196.826 -203.572)"/>
        <path id="Path_5616" d="M380.131 273.573a1.573 1.573 0 1 0-1.573 1.573 1.575 1.575 0 0 0 1.573-1.573zm-1.573.524a.524.524 0 1 1 .524-.524.525.525 0 0 1-.524.527zm0 0" class="cls-2" transform="translate(-363.706 -262.426)"/>
        <path id="Path_5617" d="M16.066 0H1.933A1.936 1.936 0 0 0 0 1.934v15.539A.527.527 0 0 0 .527 18h16.946a.527.527 0 0 0 .527-.527V1.934A1.936 1.936 0 0 0 16.066 0zM5.274 16.945H1.055V14.7a.915.915 0 0 1 .914-.914H4.36a.915.915 0 0 1 .914.914zm6.362 0H6.364v-3.867a.915.915 0 0 1 .914-.914h3.445a.915.915 0 0 1 .914.914v3.867zm5.308 0h-4.218V14.7a.915.915 0 0 1 .914-.914h2.39a.915.915 0 0 1 .914.914zm-3.3-4.219a1.956 1.956 0 0 0-.952.246 1.971 1.971 0 0 0-1.966-1.863H7.277a1.971 1.971 0 0 0-1.966 1.863c-.573-.318-.776-.246-3.342-.246a1.956 1.956 0 0 0-.915.226V5.309h15.891v7.644c-.552-.291-.738-.226-3.305-.226zM1.933 1.055h14.134a.88.88 0 0 1 .879.879v2.32H1.054v-2.32a.88.88 0 0 1 .879-.879zm0 0" class="cls-2"/>
        <path id="Path_5618" d="M422.026 61.524A.524.524 0 1 1 421.5 61a.524.524 0 0 1 .526.524zm0 0" class="cls-2" transform="translate(-406.16 -58.867)"/>
        <path id="Path_5619" d="M362.033 61.524a.524.524 0 1 1-.524-.524.524.524 0 0 1 .524.524zm0 0" class="cls-2" transform="translate(-348.289 -58.867)"/>
        <path id="Path_5620" d="M302.041 61.524a.524.524 0 1 1-.524-.524.524.524 0 0 1 .524.524zm0 0" class="cls-2" transform="translate(-290.407 -58.867)"/>
    </g>
</svg>
