<svg xmlns="http://www.w3.org/2000/svg" width="27.5" height="21.5" viewBox="0 0 27.5 21.5">
    <defs>
        <style>
            .cls-1,.cls-2{fill:none;stroke-linecap:round;stroke-linejoin:round;stroke-width:1.5px}.cls-1{stroke:#f05a28}.cls-2{stroke:#9c27b0}
        </style>
    </defs>
    <g id="DEP_MEMBERS_54_ICON" transform="translate(.75 .75)">
        <g id="Group_403" transform="translate(0 .486)">
            <circle id="Ellipse_68" cx="2" cy="2" r="2" class="cls-1" transform="translate(11.144 -.486)"/>
            <circle id="Ellipse_69" cx="2" cy="2" r="2" class="cls-1" transform="translate(20.858 2.427)"/>
            <path id="Path_5667" d="M5.094 22.283v-5.129L4 16.129v-4.1A1.061 1.061 0 0 1 5.094 11H9.47a1.061 1.061 0 0 1 1.094 1.026v4.1L9.47 17.154v5.129" class="cls-2" transform="translate(5.854 -5.333)"/>
            <path id="Path_5668" d="M5.094 22.283v-5.129L4 16.129v-4.1A1.061 1.061 0 0 1 5.094 11H9.47a1.061 1.061 0 0 1 1.094 1.026v4.1L9.47 17.154v5.129" class="cls-2" transform="translate(15.436 -2.769)"/>
            <circle id="Ellipse_70" cx="2" cy="2" r="2" class="cls-1" transform="translate(1.094 2.427)"/>
            <path id="Path_5669" d="M5.094 22.283v-5.129L4 16.129v-4.1A1.061 1.061 0 0 1 5.094 11H9.47a1.061 1.061 0 0 1 1.094 1.026v4.1L9.47 17.154v5.129" class="cls-2" transform="translate(-4 -2.769)"/>
        </g>
    </g>
</svg>
